<svg data-v-423bf9ae="" xmlns="http://www.w3.org/2000/svg" viewBox="0 0 286 90" class="iconLeftSlogan"><!----><!----><!----><g data-v-423bf9ae="" id="547e4516-f70a-45e9-944b-46a903a3b3a1" fill="black" transform="matrix(4.9751245984248085,0,0,4.9751245984248085,65.3421683321963,-3.5820898546880073)"><path d="M5.67 1.94L4.91 2.84Q3.96 2.80 3.66 1.80L3.66 1.80L2.63 2.63L2.39 2.36L4.25 0.72Q4.76 1.82 5.67 1.94L5.67 1.94ZM4.02 3.48Q3.68 3.49 3.46 3.64Q3.25 3.80 2.00 5.41L2.00 5.41L2.28 5.63Q2.70 5.11 2.97 4.95Q3.24 4.79 3.36 5.36L3.36 5.36L2.32 8.38L1.69 8.38L0.29 9.75L0.42 9.97Q1.13 9.82 1.66 9.86L1.66 9.86Q1.32 10.79 1.02 11.34Q0.72 11.88 0.15 12.38L0.15 12.38L0.25 12.69L2.47 12.68L3.45 11.39L3.35 11.27L1.66 11.26Q2.15 11.01 2.66 9.86L2.66 9.86L4.01 9.85L4.70 9.12Q5.59 11.66 6.00 12.16Q6.41 12.67 6.86 12.78L6.86 12.78L7.92 11.53Q7.12 11.35 5.96 7.69Q4.81 4.03 4.59 3.75Q4.37 3.48 4.02 3.48ZM3.81 6.47L4.48 8.44L3.14 8.43L3.81 6.47ZM9.91 6.42L8.23 7.64L8.39 7.87Q8.89 7.56 8.84 8.50L8.84 8.50Q8.77 11.46 8.86 11.91Q8.95 12.37 9.52 12.71L9.52 12.71L10.97 11.46L10.97 11.29Q10.51 11.40 10.39 10.78Q10.27 10.17 10.34 8.27L10.34 8.27Q11.22 7.48 11.82 7.71Q12.43 7.94 12.42 9.37L12.42 9.37Q12.39 11.42 12.43 11.91Q12.48 12.40 13.02 12.76L13.02 12.76L14.44 11.49L14.41 11.33Q14.05 11.44 13.94 10.81Q13.82 10.18 13.89 8.74L13.89 8.74Q13.94 7.86 13.75 7.33Q13.56 6.80 12.93 6.56Q12.31 6.31 11.78 6.57Q11.25 6.83 10.90 7.12Q10.55 7.40 10.37 7.62L10.37 7.62Q10.43 6.77 9.91 6.42L9.91 6.42ZM16.82 3.70L15.57 4.68Q15.98 4.64 15.80 6.90L15.80 6.90L15.35 6.91L14.37 8.26L14.58 8.45Q14.90 8.09 15.76 8.13L15.76 8.13Q15.63 11.08 15.76 11.67Q15.89 12.25 16.56 12.72L16.56 12.72Q17.50 12.24 18.81 11.16L18.81 11.16L18.69 10.63Q17.22 11.38 17.13 10.75Q17.05 10.13 17.12 8.13L17.12 8.13L17.97 8.13L18.87 7.02L18.81 6.88L17.14 6.86L17.22 4.57Q17.14 3.98 16.82 3.70L16.82 3.70ZM22.37 6.60Q21.31 6.43 20.38 7.26Q19.45 8.09 19.19 9.20Q18.93 10.31 19.35 11.26Q19.77 12.22 20.91 12.62L20.91 12.62Q21.84 12.93 22.85 12.18Q23.85 11.43 24.17 10.77L24.17 10.77L23.96 10.61Q22.58 11.56 21.76 11.24Q20.95 10.92 20.80 10.51L20.80 10.51L22.29 9.54Q23.73 8.65 23.58 7.70Q23.44 6.76 22.37 6.60ZM20.29 8.64Q20.27 8.14 20.64 7.78Q21.01 7.41 21.62 7.78Q22.23 8.15 22.13 8.76Q22.04 9.37 20.60 10.14L20.60 10.14Q20.44 9.80 20.37 9.47Q20.30 9.14 20.29 8.64ZM26.15 6.42L24.47 7.64L24.63 7.87Q25.14 7.56 25.08 8.50L25.08 8.50Q25.01 11.46 25.10 11.91Q25.19 12.37 25.76 12.71L25.76 12.71L27.21 11.46L27.21 11.29Q26.76 11.40 26.63 10.78Q26.51 10.17 26.58 8.27L26.58 8.27Q27.46 7.48 28.12 8.43L28.12 8.43L29.36 7.29Q28.58 6.25 27.95 6.49Q27.32 6.72 26.61 7.62L26.61 7.62Q26.67 6.77 26.15 6.42L26.15 6.42ZM31.66 6.49Q30.52 7.24 30.04 7.80Q29.57 8.35 29.37 8.92Q29.18 9.48 29.31 10.33Q29.44 11.18 30.30 11.96Q31.17 12.75 31.69 12.75Q32.21 12.76 33.33 11.74L33.33 11.74Q33.76 11.35 34.08 10.91Q34.41 10.47 34.56 9.67Q34.71 8.87 34.30 7.90L34.30 7.90Q33.26 6.30 31.66 6.49L31.66 6.49ZM31.44 7.70Q32.31 7.83 32.81 8.81Q33.32 9.79 33.15 10.78Q32.98 11.76 32.10 11.29Q31.22 10.81 30.78 10.00Q30.33 9.19 30.45 8.37Q30.57 7.56 31.44 7.70ZM42.45 3.53L40.98 4.72Q41.90 6.15 39.62 7.77L39.62 7.77L39.53 4.54Q39.46 3.93 38.88 3.56L38.88 3.56L37.45 4.76L37.47 4.93Q37.82 5.02 37.91 5.67L37.91 5.67L37.91 11.28Q37.97 11.97 38.34 12.33Q38.71 12.69 38.95 12.70L38.95 12.70Q40.29 11.82 40.36 11.80L40.36 11.80L40.24 11.55Q39.62 11.54 39.61 10.99L39.61 10.99L39.59 8.41Q40.41 8.31 41.87 11.92L41.87 11.92Q42.31 12.78 43.07 12.76L43.07 12.76L44.20 11.70L44.10 11.45Q43.42 11.56 42.67 9.61Q41.92 7.66 40.97 7.36L40.97 7.36Q43.57 5.18 42.45 3.53L42.45 3.53Z"></path></g><!----><g data-v-423bf9ae="" id="ee36f23e-cb89-4973-a3e0-49008e6d9331" transform="matrix(2.8125,0,0,2.8125,-21.194407999515533,0)" stroke="none" fill="black"><path d="M18.396 26.495L7.807 15.905 18.432 5.28l.707.707-9.918 9.918 9.882 9.883z"></path><path d="M23.194 1v4.194H19V1h4.194m1-1H18v6.194h6.194V0zM23.194 26.806V31H19v-4.194h4.194m1-1H18V32h6.194v-6.194z"></path></g><!----><g data-v-423bf9ae="" id="2c28711f-7a94-416d-bf45-8861384cf09c" fill="black" transform="matrix(0.1620123670869206,0,0,0.1620123670869206,66.00419270381448,59.5560859665431)"><path d="M0.52 3.64L0.52 3.64L0.53 3.08L3.67 3.08L3.67 3.64L3.39 3.64Q2.94 3.64 2.83 3.66L2.83 3.66Q2.66 3.71 2.66 3.82L2.66 3.82Q2.66 3.89 2.91 4.31L2.91 4.31L4.92 7.46L7.36 3.99Q7.44 3.83 7.45 3.82L7.45 3.82Q7.45 3.64 6.54 3.64L6.54 3.64L6.32 3.64L6.30 3.08L8.85 3.08L8.85 3.64L8.78 3.64Q8.43 3.64 8.29 3.72L8.29 3.72Q8.13 3.80 7.84 4.22L7.84 4.22L5.11 8.17L5.11 11.22Q5.11 11.66 5.22 11.77L5.22 11.77Q5.32 11.87 5.93 11.87L5.93 11.87L6.57 11.87L6.55 12.41L2.62 12.41L2.63 11.87L3.19 11.87Q3.73 11.87 3.85 11.79Q3.98 11.70 3.98 11.25L3.98 11.25L3.98 8.06L1.68 4.49Q1.26 3.84 1.13 3.73L1.13 3.73Q1.03 3.64 0.52 3.64ZM16.97 7.83L16.97 7.83Q16.97 6.62 17.37 5.68L17.37 5.68Q17.79 4.72 18.48 4.12L18.48 4.12Q19.17 3.51 20.03 3.19L20.03 3.19Q20.87 2.88 21.82 2.88L21.82 2.88Q23.08 2.88 24.13 3.40L24.13 3.40Q25.21 3.93 25.92 5.07L25.92 5.07Q26.62 6.17 26.63 7.75L26.63 7.75Q26.63 8.70 26.32 9.54Q26.01 10.38 25.41 11.10Q24.80 11.81 23.86 12.22L23.86 12.22Q22.90 12.63 21.71 12.64L21.71 12.64Q20.58 12.64 19.64 12.23Q18.70 11.83 18.14 11.14L18.14 11.14Q17.57 10.45 17.27 9.60L17.27 9.60Q16.97 8.72 16.97 7.83ZM18.22 7.38L18.22 7.38Q18.22 8.52 18.66 9.60L18.66 9.60Q19.06 10.64 19.99 11.33L19.99 11.33Q20.90 12.03 22.09 12.04L22.09 12.04Q23.46 12.04 24.40 11.01L24.40 11.01Q25.35 9.97 25.35 8.10L25.35 8.10Q25.35 5.99 24.19 4.72L24.19 4.72Q23.04 3.46 21.53 3.45L21.53 3.45Q21.01 3.45 20.46 3.65Q19.92 3.85 19.41 4.25L19.41 4.25Q18.87 4.68 18.55 5.48L18.55 5.48Q18.22 6.27 18.22 7.38ZM35.12 3.64L34.74 3.64L34.74 3.08L38.10 3.08L38.12 3.64L37.58 3.64Q37.15 3.64 37.00 3.73L37.00 3.73Q36.83 3.83 36.83 4.16L36.83 4.16L36.83 9.33Q36.83 9.63 36.86 9.78L36.86 9.78Q36.90 10.01 37.06 10.41L37.06 10.41Q37.24 10.80 37.53 11.09L37.53 11.09Q37.84 11.40 38.40 11.63L38.40 11.63Q38.97 11.85 39.75 11.85L39.75 11.85Q40.61 11.85 41.15 11.67L41.15 11.67Q41.71 11.48 42.02 11.22Q42.33 10.96 42.47 10.49L42.47 10.49Q42.64 9.95 42.65 9.66L42.65 9.66Q42.68 9.18 42.68 8.67L42.68 8.67L42.68 4.14Q42.68 3.81 42.54 3.72L42.54 3.72Q42.39 3.64 41.91 3.64L41.91 3.64L41.42 3.64L41.45 3.08L44.08 3.08L44.08 3.64L43.89 3.64Q43.57 3.64 43.45 3.75Q43.34 3.86 43.34 4.25L43.34 4.25L43.34 9.22Q43.34 12.67 39.75 12.67L39.75 12.67Q37.58 12.67 36.63 11.76L36.63 11.76Q35.70 10.86 35.70 9.41L35.70 9.41L35.70 4.14Q35.70 3.81 35.59 3.72L35.59 3.72Q35.49 3.64 35.12 3.64L35.12 3.64ZM61.77 3.64L61.53 3.64L61.53 3.08L64.63 3.08L64.62 3.64L64.31 3.64Q63.49 3.64 63.49 3.94L63.49 3.94Q63.49 4.03 63.52 4.09L63.52 4.09L65.94 10.76L68.25 4.85L68.15 4.57Q68.12 4.52 68.10 4.44Q68.08 4.36 68.06 4.31Q68.04 4.25 68.02 4.22L68.02 4.22Q68.00 4.16 67.90 3.96L67.90 3.96Q67.82 3.80 67.70 3.71L67.70 3.71Q67.62 3.64 67.45 3.64L67.45 3.64L66.77 3.64L66.77 3.08L70.10 3.08L70.10 3.64L69.36 3.64Q69.13 3.64 69.06 3.68L69.06 3.68Q69.00 3.72 68.99 3.86Q68.99 4.00 69.24 4.76L69.24 4.76L71.29 10.72L73.78 4.18Q73.83 4.01 73.83 3.94L73.83 3.94Q73.83 3.75 73.66 3.69L73.66 3.69Q73.51 3.64 73.15 3.64L73.15 3.64L72.78 3.64L72.78 3.08L75.18 3.08L75.20 3.64L75.02 3.64Q74.68 3.64 74.58 3.77L74.58 3.77Q74.46 3.96 74.21 4.60L74.21 4.60L71.12 12.64L70.88 12.64L68.50 5.64L65.78 12.63L65.56 12.63L62.59 4.52Q62.38 3.96 62.21 3.79L62.21 3.79Q62.06 3.63 61.77 3.64L61.77 3.64ZM83.51 3.64L82.93 3.64L82.94 3.08L86.45 3.08L86.45 3.64L86.22 3.64Q85.67 3.64 85.50 3.73L85.50 3.73Q85.37 3.81 85.37 4.28L85.37 4.28L85.37 11.22Q85.37 11.68 85.48 11.77Q85.59 11.87 86.12 11.87L86.12 11.87L86.67 11.87L86.68 12.41L83.10 12.41L83.08 11.87L83.45 11.87Q84.01 11.87 84.12 11.77Q84.23 11.67 84.23 11.25L84.23 11.25L84.23 4.14Q84.23 3.77 84.13 3.71L84.13 3.71Q84.02 3.64 83.51 3.64L83.51 3.64ZM94.91 3.64L94.42 3.64L94.43 3.08L98.02 3.08L98.02 3.64L97.38 3.64Q97.01 3.64 96.90 3.72Q96.78 3.80 96.78 4.16L96.78 4.16L96.78 11.22Q96.78 11.57 96.87 11.67Q96.95 11.77 97.25 11.77L97.25 11.77Q100.12 11.74 100.78 11.63L100.78 11.63Q100.99 11.61 101.07 11.39Q101.15 11.17 101.35 10.05L101.35 10.05L101.84 10.08L101.38 12.41L94.62 12.41L94.60 11.87L94.99 11.87Q95.50 11.87 95.57 11.80L95.57 11.80Q95.65 11.72 95.66 11.33L95.66 11.33L95.66 4.09Q95.66 3.80 95.50 3.72L95.50 3.72Q95.35 3.64 94.91 3.64L94.91 3.64ZM110.07 3.64L109.57 3.64L109.59 3.08L113.18 3.08L113.18 3.64L112.54 3.64Q112.16 3.64 112.05 3.72Q111.94 3.80 111.94 4.16L111.94 4.16L111.94 11.22Q111.94 11.57 112.02 11.67Q112.11 11.77 112.40 11.77L112.40 11.77Q115.27 11.74 115.93 11.63L115.93 11.63Q116.14 11.61 116.22 11.39Q116.31 11.17 116.50 10.05L116.50 10.05L117.00 10.08L116.53 12.41L109.77 12.41L109.76 11.87L110.15 11.87Q110.65 11.87 110.72 11.80L110.72 11.80Q110.80 11.72 110.81 11.33L110.81 11.33L110.81 4.09Q110.81 3.80 110.65 3.72L110.65 3.72Q110.50 3.64 110.07 3.64L110.07 3.64ZM134.31 3.64L134.30 3.08L136.47 3.08L142.21 10.48L142.21 4.14Q142.21 3.81 142.05 3.72Q141.90 3.64 141.44 3.64L141.44 3.64L140.95 3.64L140.98 3.08L143.96 3.08L143.96 3.64L143.64 3.64Q143.17 3.64 143.02 3.75Q142.87 3.86 142.87 4.25L142.87 4.25L142.87 12.32L142.87 12.47Q142.87 12.52 142.86 12.57Q142.84 12.61 142.81 12.64L142.81 12.64Q142.80 12.65 142.74 12.65L142.74 12.65L142.55 12.65L142.49 12.65L142.46 12.65L142.43 12.64Q142.41 12.64 142.39 12.63Q142.38 12.61 142.38 12.60Q142.38 12.58 142.37 12.57L142.37 12.57Q142.34 12.54 142.31 12.50L142.31 12.50Q142.30 12.48 142.28 12.45Q142.26 12.41 142.24 12.40L142.24 12.40L136.14 4.56L136.21 11.22Q136.21 11.67 136.37 11.77L136.37 11.77Q136.53 11.87 137.24 11.87L137.24 11.87L137.48 11.87L137.48 12.41L134.54 12.41L134.54 11.87L134.96 11.87Q135.34 11.87 135.45 11.76L135.45 11.76Q135.54 11.66 135.55 11.25L135.55 11.25L135.55 3.80L135.41 3.64L134.31 3.64ZM151.71 3.64L151.70 3.08L158.91 3.08Q158.92 4.14 158.98 5.28L158.98 5.28L158.43 5.30Q158.42 4.66 158.36 4.25L158.36 4.25Q158.32 3.89 158.27 3.80L158.27 3.80Q158.21 3.71 158.09 3.69L158.09 3.69Q158.00 3.68 157.41 3.68L157.41 3.68L155.03 3.68Q154.49 3.68 154.34 3.77L154.34 3.77Q154.22 3.86 154.22 4.33L154.22 4.33L154.22 6.28Q154.22 6.69 154.27 6.76L154.27 6.76Q154.34 6.84 154.68 6.84L154.68 6.84L156.80 6.84Q157.16 6.84 157.24 6.73L157.24 6.73Q157.32 6.63 157.33 6.14L157.33 6.14L157.33 5.61L157.84 5.63L157.84 8.97L157.33 8.97L157.33 8.24Q157.33 7.66 157.25 7.57L157.25 7.57Q157.17 7.46 156.82 7.46L156.82 7.46L154.72 7.46Q154.39 7.46 154.30 7.54Q154.22 7.63 154.22 7.89L154.22 7.89L154.22 11.20Q154.22 11.57 154.30 11.67Q154.39 11.77 154.66 11.77L154.66 11.77Q157.58 11.75 158.11 11.69L158.11 11.69Q158.63 11.63 158.71 11.38L158.71 11.38L158.72 11.36L158.72 11.35L158.95 10.17L159.43 10.25L159.08 12.41L151.98 12.41L151.98 11.87L152.35 11.87Q152.91 11.87 152.99 11.80L152.99 11.80Q153.08 11.72 153.08 11.33L153.08 11.33L153.08 4.24Q153.08 3.82 152.93 3.73L152.93 3.73Q152.76 3.64 152.11 3.64L152.11 3.64L151.71 3.64ZM167.79 3.64L167.30 3.64L167.30 3.08L170.82 3.08L170.80 3.64L170.06 3.64Q169.73 3.64 169.73 3.82L169.73 3.82Q169.73 3.98 169.92 4.48L169.92 4.48L172.53 10.94L175.46 4.18Q175.53 3.97 175.54 3.92L175.54 3.92Q175.54 3.79 175.44 3.74Q175.34 3.68 175.20 3.65L175.20 3.65Q175.12 3.64 174.85 3.64L174.85 3.64L174.41 3.64L174.38 3.08L177.21 3.08L177.19 3.64L176.78 3.64Q176.46 3.64 176.31 3.83L176.31 3.83Q176.22 3.93 175.76 4.94L175.76 4.94Q175.55 5.46 175.48 5.57L175.48 5.57L172.35 12.63L172.11 12.63L168.86 4.73Q168.54 3.93 168.40 3.79L168.40 3.79Q168.24 3.63 167.79 3.64L167.79 3.64ZM184.97 3.64L184.95 3.08L192.17 3.08Q192.18 4.14 192.23 5.28L192.23 5.28L191.69 5.30Q191.67 4.66 191.62 4.25L191.62 4.25Q191.58 3.89 191.52 3.80L191.52 3.80Q191.47 3.71 191.35 3.69L191.35 3.69Q191.26 3.68 190.67 3.68L190.67 3.68L188.29 3.68Q187.74 3.68 187.60 3.77L187.60 3.77Q187.48 3.86 187.48 4.33L187.48 4.33L187.48 6.28Q187.48 6.69 187.53 6.76L187.53 6.76Q187.60 6.84 187.94 6.84L187.94 6.84L190.05 6.84Q190.42 6.84 190.50 6.73L190.50 6.73Q190.58 6.63 190.59 6.14L190.59 6.14L190.59 5.61L191.10 5.63L191.10 8.97L190.59 8.97L190.59 8.24Q190.59 7.66 190.51 7.57L190.51 7.57Q190.43 7.46 190.08 7.46L190.08 7.46L187.98 7.46Q187.65 7.46 187.56 7.54Q187.48 7.63 187.48 7.89L187.48 7.89L187.48 11.20Q187.48 11.57 187.56 11.67Q187.65 11.77 187.92 11.77L187.92 11.77Q190.84 11.75 191.37 11.69L191.37 11.69Q191.88 11.63 191.97 11.38L191.97 11.38L191.97 11.36L191.98 11.35L192.21 10.17L192.68 10.25L192.34 12.41L185.23 12.41L185.23 11.87L185.60 11.87Q186.16 11.87 186.25 11.80L186.25 11.80Q186.34 11.72 186.34 11.33L186.34 11.33L186.34 4.24Q186.34 3.82 186.19 3.73L186.19 3.73Q186.02 3.64 185.36 3.64L185.36 3.64L184.97 3.64ZM200.89 3.64L200.50 3.64L200.52 3.08L203.74 3.08Q204.87 3.08 205.47 3.21L205.47 3.21Q206.12 3.37 206.58 3.75L206.58 3.75Q207.59 4.57 207.59 5.71L207.59 5.71Q207.59 6.43 207.12 7.04L207.12 7.04Q206.62 7.66 205.59 7.92L205.59 7.92L208.28 11.49Q208.58 11.87 208.88 11.87L208.88 11.87L209.48 11.87L209.51 12.41L207.48 12.41L204.48 8.10L204.31 8.10Q204.27 8.10 204.22 8.11Q204.16 8.11 204.15 8.11L204.15 8.11Q203.27 8.11 202.87 8.03L202.87 8.03L202.87 11.46Q202.87 11.76 203.01 11.81L203.01 11.81Q203.14 11.87 203.84 11.87L203.84 11.87L204.55 11.87L204.52 12.41L200.80 12.41L200.80 11.87L201.12 11.87Q201.58 11.87 201.65 11.81L201.65 11.81Q201.74 11.74 201.74 11.46L201.74 11.46L201.74 4.14Q201.74 3.82 201.54 3.73L201.54 3.73Q201.32 3.64 200.89 3.64L200.89 3.64ZM202.87 4.28L202.87 7.57Q203.05 7.70 203.77 7.71L203.77 7.71Q205.04 7.71 205.62 7.27L205.62 7.27Q206.21 6.84 206.21 5.92L206.21 5.92Q206.21 4.92 205.43 4.27L205.43 4.27Q204.67 3.64 203.29 3.64L203.29 3.64Q203.04 3.64 202.96 3.75L202.96 3.75Q202.88 3.84 202.87 4.28L202.87 4.28ZM226.84 3.64L226.83 3.08L234.01 3.08Q234.03 4.14 234.08 5.28L234.08 5.28L233.54 5.30Q233.52 4.66 233.47 4.25L233.47 4.25Q233.43 3.89 233.37 3.80L233.37 3.80Q233.32 3.71 233.20 3.69L233.20 3.69Q233.11 3.68 232.52 3.68L232.52 3.68L230.14 3.68Q229.59 3.68 229.45 3.77L229.45 3.77Q229.33 3.86 229.33 4.33L229.33 4.33L229.33 6.28Q229.33 6.69 229.38 6.76L229.38 6.76Q229.45 6.84 229.78 6.84L229.78 6.84L231.90 6.84Q232.26 6.84 232.35 6.74Q232.43 6.64 232.43 6.17L232.43 6.17L232.43 5.63L232.95 5.63L232.95 8.97L232.43 8.97L232.43 8.26Q232.43 7.68 232.35 7.57Q232.26 7.46 231.93 7.46L231.93 7.46L229.83 7.46Q229.50 7.46 229.41 7.54Q229.33 7.63 229.33 7.89L229.33 7.89L229.33 11.20Q229.33 11.60 229.39 11.73L229.39 11.73Q229.48 11.87 229.74 11.87L229.74 11.87L230.68 11.87L230.68 12.41L227.08 12.41L227.08 11.87L227.49 11.87Q228.00 11.87 228.09 11.79Q228.19 11.70 228.19 11.33L228.19 11.33L228.19 4.24Q228.19 3.79 228.02 3.71L228.02 3.71Q227.88 3.64 226.84 3.64L226.84 3.64ZM242.72 3.64L242.13 3.64L242.14 3.08L245.66 3.08L245.66 3.64L245.42 3.64Q244.88 3.64 244.71 3.73L244.71 3.73Q244.57 3.81 244.57 4.28L244.57 4.28L244.57 11.22Q244.57 11.68 244.68 11.77Q244.79 11.87 245.32 11.87L245.32 11.87L245.87 11.87L245.88 12.41L242.30 12.41L242.29 11.87L242.65 11.87Q243.21 11.87 243.32 11.77Q243.43 11.67 243.43 11.25L243.43 11.25L243.43 4.14Q243.43 3.77 243.33 3.71L243.33 3.71Q243.22 3.64 242.72 3.64L242.72 3.64ZM253.63 3.64L253.62 3.08L255.79 3.08L261.53 10.48L261.53 4.14Q261.53 3.81 261.38 3.72Q261.22 3.64 260.76 3.64L260.76 3.64L260.27 3.64L260.30 3.08L263.28 3.08L263.28 3.64L262.96 3.64Q262.49 3.64 262.34 3.75Q262.19 3.86 262.19 4.25L262.19 4.25L262.19 12.32L262.19 12.47Q262.19 12.52 262.18 12.57Q262.17 12.61 262.13 12.64L262.13 12.64Q262.12 12.65 262.06 12.65L262.06 12.65L261.87 12.65L261.81 12.65L261.78 12.65L261.75 12.64Q261.73 12.64 261.71 12.63Q261.70 12.61 261.70 12.60Q261.70 12.58 261.69 12.57L261.69 12.57Q261.66 12.54 261.63 12.50L261.63 12.50Q261.62 12.48 261.60 12.45Q261.58 12.41 261.56 12.40L261.56 12.40L255.46 4.56L255.53 11.22Q255.53 11.67 255.69 11.77L255.69 11.77Q255.85 11.87 256.56 11.87L256.56 11.87L256.80 11.87L256.80 12.41L253.86 12.41L253.86 11.87L254.28 11.87Q254.66 11.87 254.77 11.76L254.77 11.76Q254.86 11.66 254.87 11.25L254.87 11.25L254.87 3.80L254.73 3.64L253.63 3.64ZM271.06 3.64L271.02 3.08L274.80 3.08Q276.12 3.08 276.99 3.19L276.99 3.19Q277.81 3.29 278.50 3.69L278.50 3.69Q279.45 4.27 279.95 5.24L279.95 5.24Q280.44 6.21 280.44 7.39L280.44 7.39Q280.44 8.05 280.30 8.65L280.30 8.65Q280.14 9.29 279.75 9.98L279.75 9.98Q279.32 10.73 278.76 11.21L278.76 11.21Q278.13 11.76 277.16 12.08L277.16 12.08Q276.16 12.41 274.89 12.41L274.89 12.41L271.27 12.41L271.26 11.87L271.63 11.87Q272.15 11.87 272.25 11.79L272.25 11.79Q272.36 11.70 272.36 11.25L272.36 11.25L272.36 4.14Q272.36 3.77 272.27 3.71L272.27 3.71Q272.16 3.64 271.65 3.64L271.65 3.64L271.06 3.64ZM273.50 4.39L273.50 11.22Q273.50 11.67 273.66 11.77L273.66 11.77Q273.82 11.87 274.69 11.87L274.69 11.87Q275.74 11.87 276.53 11.61L276.53 11.61Q277.39 11.35 277.83 10.99L277.83 10.99Q278.32 10.58 278.62 10.05Q278.93 9.52 279.06 8.96L279.06 8.96Q279.18 8.41 279.18 7.82L279.18 7.82Q279.18 7.03 278.91 6.34L278.91 6.34Q278.65 5.65 278.12 5.05L278.12 5.05Q277.59 4.46 276.68 4.09L276.68 4.09Q275.75 3.73 274.59 3.73L274.59 3.73L274.07 3.73Q273.71 3.73 273.61 3.85L273.61 3.85Q273.50 3.99 273.50 4.39L273.50 4.39ZM298.27 5.35L297.77 5.33Q297.89 4.17 297.97 3.08L297.97 3.08L306.05 3.08Q305.97 4.13 305.94 4.53L305.94 4.53Q305.90 5.26 305.88 5.32L305.88 5.32L305.38 5.30Q305.46 4.34 305.46 4.16L305.46 4.16Q305.46 3.88 305.32 3.79L305.32 3.79Q305.15 3.69 304.75 3.69L304.75 3.69L303.14 3.69Q302.63 3.69 302.51 3.79L302.51 3.79Q302.42 3.87 302.41 4.36L302.41 4.36L302.41 11.22Q302.41 11.66 302.55 11.76L302.55 11.76Q302.71 11.87 303.22 11.87L303.22 11.87L303.78 11.87L303.80 12.41L300.10 12.40L300.10 11.87L300.32 11.87Q300.99 11.87 301.14 11.79Q301.28 11.70 301.28 11.28L301.28 11.28L301.28 4.48Q301.28 3.92 301.18 3.80Q301.08 3.69 300.66 3.69L300.66 3.69L299.19 3.69Q299.00 3.69 298.94 3.71Q298.87 3.72 298.76 3.72L298.76 3.72Q298.73 3.72 298.61 3.79L298.61 3.79Q298.53 3.84 298.50 3.86Q298.48 3.88 298.44 3.99L298.44 3.99Q298.41 4.05 298.38 4.14L298.38 4.14Q298.35 4.21 298.33 4.36L298.33 4.36Q298.31 4.59 298.31 4.61L298.31 4.61Q298.31 4.80 298.29 4.95L298.29 4.95Q298.29 5.02 298.29 5.15Q298.28 5.29 298.27 5.35L298.27 5.35ZM314.38 3.64L313.79 3.64L313.80 3.08L317.32 3.08L317.32 3.64L317.08 3.64Q316.54 3.64 316.37 3.73L316.37 3.73Q316.23 3.81 316.23 4.28L316.23 4.28L316.23 11.22Q316.23 11.68 316.34 11.77Q316.45 11.87 316.98 11.87L316.98 11.87L317.53 11.87L317.54 12.41L313.96 12.41L313.95 11.87L314.31 11.87Q314.87 11.87 314.98 11.77Q315.10 11.67 315.10 11.25L315.10 11.25L315.10 4.14Q315.10 3.77 314.99 3.71L314.99 3.71Q314.88 3.64 314.38 3.64L314.38 3.64ZM328.45 12.41L325.42 12.41L325.42 11.87L325.56 11.87Q326.15 11.87 326.27 11.77L326.27 11.77Q326.39 11.68 326.40 11.21L326.40 11.21L326.53 4.38Q326.53 4.35 326.54 4.28Q326.55 4.21 326.55 4.17L326.55 4.17L326.55 4.01Q326.55 3.76 326.47 3.71L326.47 3.71Q326.38 3.64 326.15 3.64L326.15 3.64L325.44 3.64L325.42 3.08L327.54 3.08L330.73 10.55L333.87 3.08L336.10 3.08L336.10 3.64L335.63 3.64Q335.18 3.64 335.06 3.71L335.06 3.71Q334.90 3.79 334.90 4.08L334.90 4.08L334.90 11.22Q334.90 11.68 335.01 11.77Q335.13 11.87 335.75 11.87L335.75 11.87L336.03 11.87L336.05 12.41L332.65 12.41L332.63 11.87L332.91 11.87Q333.53 11.87 333.64 11.77L333.64 11.77Q333.76 11.66 333.76 11.25L333.76 11.25L333.76 4.83L331.61 9.91L330.76 12.02Q330.62 12.37 330.58 12.44Q330.53 12.51 330.46 12.51L330.46 12.51Q330.37 12.51 329.92 11.52L329.92 11.52L327.11 5.01L327.04 11.39Q327.04 11.74 327.24 11.80L327.24 11.80Q327.48 11.87 328.45 11.87L328.45 11.87L328.45 12.41ZM343.79 3.64L343.77 3.08L350.98 3.08Q351.00 4.14 351.05 5.28L351.05 5.28L350.51 5.30Q350.49 4.66 350.44 4.25L350.44 4.25Q350.40 3.89 350.34 3.80L350.34 3.80Q350.29 3.71 350.17 3.69L350.17 3.69Q350.08 3.68 349.49 3.68L349.49 3.68L347.11 3.68Q346.56 3.68 346.42 3.77L346.42 3.77Q346.29 3.86 346.29 4.33L346.29 4.33L346.29 6.28Q346.29 6.69 346.35 6.76L346.35 6.76Q346.42 6.84 346.76 6.84L346.76 6.84L348.87 6.84Q349.23 6.84 349.32 6.73L349.32 6.73Q349.40 6.63 349.41 6.14L349.41 6.14L349.41 5.61L349.92 5.63L349.92 8.97L349.41 8.97L349.41 8.24Q349.41 7.66 349.33 7.57L349.33 7.57Q349.25 7.46 348.90 7.46L348.90 7.46L346.80 7.46Q346.47 7.46 346.38 7.54Q346.29 7.63 346.29 7.89L346.29 7.89L346.29 11.20Q346.29 11.57 346.38 11.67Q346.47 11.77 346.74 11.77L346.74 11.77Q349.66 11.75 350.18 11.69L350.18 11.69Q350.70 11.63 350.79 11.38L350.79 11.38L350.79 11.36L350.80 11.35L351.03 10.17L351.50 10.25L351.16 12.41L344.05 12.41L344.05 11.87L344.42 11.87Q344.98 11.87 345.06 11.80L345.06 11.80Q345.16 11.72 345.16 11.33L345.16 11.33L345.16 4.24Q345.16 3.82 345.01 3.73L345.01 3.73Q344.84 3.64 344.18 3.64L344.18 3.64L343.79 3.64ZM368.96 3.64L368.95 3.08L376.13 3.08Q376.15 4.14 376.20 5.28L376.20 5.28L375.66 5.30Q375.64 4.66 375.59 4.25L375.59 4.25Q375.55 3.89 375.49 3.80L375.49 3.80Q375.44 3.71 375.32 3.69L375.32 3.69Q375.22 3.68 374.64 3.68L374.64 3.68L372.26 3.68Q371.71 3.68 371.57 3.77L371.57 3.77Q371.44 3.86 371.44 4.33L371.44 4.33L371.44 6.28Q371.44 6.69 371.50 6.76L371.50 6.76Q371.57 6.84 371.90 6.84L371.90 6.84L374.02 6.84Q374.38 6.84 374.47 6.74Q374.55 6.64 374.55 6.17L374.55 6.17L374.55 5.63L375.07 5.63L375.07 8.97L374.55 8.97L374.55 8.26Q374.55 7.68 374.47 7.57Q374.38 7.46 374.05 7.46L374.05 7.46L371.95 7.46Q371.62 7.46 371.53 7.54Q371.44 7.63 371.44 7.89L371.44 7.89L371.44 11.20Q371.44 11.60 371.51 11.73L371.51 11.73Q371.59 11.87 371.86 11.87L371.86 11.87L372.80 11.87L372.80 12.41L369.20 12.41L369.20 11.87L369.61 11.87Q370.12 11.87 370.21 11.79Q370.31 11.70 370.31 11.33L370.31 11.33L370.31 4.24Q370.31 3.79 370.14 3.71L370.14 3.71Q370.00 3.64 368.96 3.64L368.96 3.64ZM384.63 7.83L384.63 7.83Q384.63 6.62 385.03 5.68L385.03 5.68Q385.45 4.72 386.14 4.12L386.14 4.12Q386.83 3.51 387.69 3.19L387.69 3.19Q388.53 2.88 389.48 2.88L389.48 2.88Q390.74 2.88 391.79 3.40L391.79 3.40Q392.88 3.93 393.59 5.07L393.59 5.07Q394.28 6.17 394.29 7.75L394.29 7.75Q394.29 8.70 393.98 9.54Q393.67 10.38 393.07 11.10Q392.46 11.81 391.53 12.22L391.53 12.22Q390.56 12.63 389.38 12.64L389.38 12.64Q388.24 12.64 387.30 12.23Q386.37 11.83 385.81 11.14L385.81 11.14Q385.23 10.45 384.94 9.60L384.94 9.60Q384.63 8.72 384.63 7.83ZM385.89 7.38L385.89 7.38Q385.89 8.52 386.32 9.60L386.32 9.60Q386.72 10.64 387.65 11.33L387.65 11.33Q388.56 12.03 389.75 12.04L389.75 12.04Q391.13 12.04 392.06 11.01L392.06 11.01Q393.01 9.97 393.01 8.10L393.01 8.10Q393.01 5.99 391.85 4.72L391.85 4.72Q390.70 3.46 389.19 3.45L389.19 3.45Q388.67 3.45 388.13 3.65Q387.58 3.85 387.08 4.25L387.08 4.25Q386.53 4.68 386.21 5.48L386.21 5.48Q385.89 6.27 385.89 7.38ZM402.74 3.64L402.35 3.64L402.36 3.08L405.58 3.08Q406.72 3.08 407.32 3.21L407.32 3.21Q407.96 3.37 408.43 3.75L408.43 3.75Q409.43 4.57 409.43 5.71L409.43 5.71Q409.43 6.43 408.96 7.04L408.96 7.04Q408.47 7.66 407.44 7.92L407.44 7.92L410.12 11.49Q410.43 11.87 410.72 11.87L410.72 11.87L411.33 11.87L411.35 12.41L409.32 12.41L406.33 8.10L406.16 8.10Q406.12 8.10 406.06 8.11Q406.01 8.11 405.99 8.11L405.99 8.11Q405.11 8.11 404.71 8.03L404.71 8.03L404.71 11.46Q404.71 11.76 404.86 11.81L404.86 11.81Q404.98 11.87 405.69 11.87L405.69 11.87L406.40 11.87L406.37 12.41L402.64 12.41L402.64 11.87L402.96 11.87Q403.43 11.87 403.50 11.81L403.50 11.81Q403.58 11.74 403.58 11.46L403.58 11.46L403.58 4.14Q403.58 3.82 403.39 3.73L403.39 3.73Q403.16 3.64 402.74 3.64L402.74 3.64ZM404.71 4.28L404.71 7.57Q404.90 7.70 405.61 7.71L405.61 7.71Q406.88 7.71 407.46 7.27L407.46 7.27Q408.05 6.84 408.05 5.92L408.05 5.92Q408.05 4.92 407.28 4.27L407.28 4.27Q406.52 3.64 405.14 3.64L405.14 3.64Q404.89 3.64 404.80 3.75L404.80 3.75Q404.72 3.84 404.71 4.28L404.71 4.28ZM428.69 12.41L428.67 11.87L428.85 11.87Q429.24 11.87 429.37 11.73L429.37 11.73Q429.49 11.57 429.82 10.83L429.82 10.83L430.73 8.82L431.31 7.53Q431.57 6.97 431.61 6.86L431.61 6.86Q431.68 6.70 431.73 6.60Q431.79 6.51 431.80 6.45L431.80 6.45L431.89 6.21L433.32 2.74L433.62 2.74Q434.47 4.98 436.66 10.25L436.66 10.25Q437.11 11.34 437.30 11.64L437.30 11.64Q437.44 11.87 437.88 11.87L437.88 11.87L438.09 11.87L438.07 12.41L434.88 12.41L434.90 11.87L435.31 11.87Q435.93 11.87 435.93 11.70L435.93 11.70Q435.93 11.63 435.79 11.27L435.79 11.27L434.75 8.72L431.50 8.72L430.40 11.18Q430.26 11.50 430.26 11.63L430.26 11.63Q430.26 11.79 430.36 11.83Q430.45 11.87 430.83 11.87L430.83 11.87L431.41 11.87L431.41 12.41L428.69 12.41ZM433.19 4.79L431.77 8.10L434.51 8.10L433.19 4.79ZM445.83 3.64L445.82 3.08L447.99 3.08L453.73 10.48L453.73 4.14Q453.73 3.81 453.57 3.72Q453.42 3.64 452.96 3.64L452.96 3.64L452.47 3.64L452.50 3.08L455.48 3.08L455.48 3.64L455.16 3.64Q454.69 3.64 454.54 3.75Q454.39 3.86 454.39 4.25L454.39 4.25L454.39 12.32L454.39 12.47Q454.39 12.52 454.38 12.57Q454.36 12.61 454.33 12.64L454.33 12.64Q454.32 12.65 454.26 12.65L454.26 12.65L454.07 12.65L454.01 12.65L453.98 12.65L453.95 12.64Q453.93 12.64 453.91 12.63Q453.90 12.61 453.90 12.60Q453.90 12.58 453.89 12.57L453.89 12.57Q453.86 12.54 453.83 12.50L453.83 12.50Q453.82 12.48 453.80 12.45Q453.78 12.41 453.76 12.40L453.76 12.40L447.66 4.56L447.73 11.22Q447.73 11.67 447.89 11.77L447.89 11.77Q448.05 11.87 448.76 11.87L448.76 11.87L449.00 11.87L449.00 12.41L446.06 12.41L446.06 11.87L446.48 11.87Q446.86 11.87 446.97 11.76L446.97 11.76Q447.06 11.66 447.07 11.25L447.07 11.25L447.07 3.80L446.93 3.64L445.83 3.64ZM463.36 3.64L463.36 3.64L463.37 3.08L466.51 3.08L466.51 3.64L466.23 3.64Q465.78 3.64 465.67 3.66L465.67 3.66Q465.50 3.71 465.50 3.82L465.50 3.82Q465.50 3.89 465.75 4.31L465.75 4.31L467.76 7.46L470.20 3.99Q470.29 3.83 470.29 3.82L470.29 3.82Q470.29 3.64 469.38 3.64L469.38 3.64L469.16 3.64L469.14 3.08L471.69 3.08L471.69 3.64L471.62 3.64Q471.27 3.64 471.13 3.72L471.13 3.72Q470.97 3.80 470.68 4.22L470.68 4.22L467.95 8.17L467.95 11.22Q467.95 11.66 468.06 11.77L468.06 11.77Q468.16 11.87 468.77 11.87L468.77 11.87L469.41 11.87L469.39 12.41L465.46 12.41L465.47 11.87L466.03 11.87Q466.57 11.87 466.69 11.79Q466.82 11.70 466.82 11.25L466.82 11.25L466.82 8.06L464.52 4.49Q464.11 3.84 463.98 3.73L463.98 3.73Q463.87 3.64 463.36 3.64ZM479.71 5.35L479.21 5.33Q479.33 4.17 479.41 3.08L479.41 3.08L487.49 3.08Q487.41 4.13 487.38 4.53L487.38 4.53Q487.34 5.26 487.32 5.32L487.32 5.32L486.82 5.30Q486.90 4.34 486.90 4.16L486.90 4.16Q486.90 3.88 486.76 3.79L486.76 3.79Q486.59 3.69 486.19 3.69L486.19 3.69L484.58 3.69Q484.07 3.69 483.95 3.79L483.95 3.79Q483.85 3.87 483.85 4.36L483.85 4.36L483.85 11.22Q483.85 11.66 483.99 11.76L483.99 11.76Q484.15 11.87 484.66 11.87L484.66 11.87L485.22 11.87L485.24 12.41L481.54 12.40L481.54 11.87L481.76 11.87Q482.43 11.87 482.58 11.79Q482.72 11.70 482.72 11.28L482.72 11.28L482.72 4.48Q482.72 3.92 482.62 3.80Q482.52 3.69 482.10 3.69L482.10 3.69L480.63 3.69Q480.44 3.69 480.38 3.71Q480.31 3.72 480.20 3.72L480.20 3.72Q480.17 3.72 480.05 3.79L480.05 3.79Q479.97 3.84 479.94 3.86Q479.92 3.88 479.88 3.99L479.88 3.99Q479.85 4.05 479.82 4.14L479.82 4.14Q479.79 4.21 479.77 4.36L479.77 4.36Q479.75 4.59 479.75 4.61L479.75 4.61Q479.75 4.80 479.73 4.95L479.73 4.95Q479.73 5.02 479.73 5.15Q479.72 5.29 479.71 5.35L479.71 5.35ZM495.60 3.64L495.23 3.64L495.23 3.08L498.72 3.08L498.72 3.64L498.35 3.64Q497.85 3.64 497.70 3.75L497.70 3.75Q497.56 3.84 497.55 4.25L497.55 4.25L497.55 6.91L502.11 6.91L502.11 4.14Q502.11 3.77 502.01 3.71L502.01 3.71Q501.90 3.64 501.38 3.64L501.38 3.64L500.79 3.64L500.77 3.08L504.33 3.08L504.33 3.64L503.94 3.64Q503.46 3.64 503.35 3.74Q503.24 3.83 503.24 4.22L503.24 4.22L503.24 11.29Q503.24 11.67 503.38 11.77L503.38 11.77Q503.54 11.87 504.08 11.87L504.08 11.87L504.55 11.87L504.54 12.41L501.05 12.41L501.04 11.87L501.45 11.87Q501.92 11.87 502.01 11.77Q502.11 11.67 502.11 11.25L502.11 11.25L502.11 7.58L497.55 7.58L497.55 11.25Q497.55 11.67 497.71 11.77Q497.86 11.87 498.57 11.87L498.57 11.87L498.97 11.87L498.94 12.41L495.36 12.41L495.35 11.87L495.71 11.87Q496.25 11.87 496.32 11.80L496.32 11.80Q496.42 11.70 496.42 11.25L496.42 11.25L496.42 4.09Q496.42 3.76 496.28 3.71L496.28 3.71Q496.11 3.64 495.60 3.64L495.60 3.64ZM512.88 3.64L512.29 3.64L512.31 3.08L515.82 3.08L515.82 3.64L515.59 3.64Q515.04 3.64 514.87 3.73L514.87 3.73Q514.73 3.81 514.73 4.28L514.73 4.28L514.73 11.22Q514.73 11.68 514.84 11.77Q514.95 11.87 515.48 11.87L515.48 11.87L516.03 11.87L516.04 12.41L512.46 12.41L512.45 11.87L512.81 11.87Q513.37 11.87 513.48 11.77Q513.60 11.67 513.60 11.25L513.60 11.25L513.60 4.14Q513.60 3.77 513.50 3.71L513.50 3.71Q513.39 3.64 512.88 3.64L512.88 3.64ZM523.80 3.64L523.78 3.08L525.96 3.08L531.69 10.48L531.69 4.14Q531.69 3.81 531.54 3.72Q531.38 3.64 530.93 3.64L530.93 3.64L530.43 3.64L530.46 3.08L533.44 3.08L533.44 3.64L533.12 3.64Q532.66 3.64 532.51 3.75Q532.36 3.86 532.36 4.25L532.36 4.25L532.36 12.32L532.36 12.47Q532.36 12.52 532.34 12.57Q532.33 12.61 532.29 12.64L532.29 12.64Q532.28 12.65 532.23 12.65L532.23 12.65L532.03 12.65L531.97 12.65L531.95 12.65L531.92 12.64Q531.89 12.64 531.88 12.63Q531.86 12.61 531.86 12.60Q531.86 12.58 531.85 12.57L531.85 12.57Q531.82 12.54 531.79 12.50L531.79 12.50Q531.78 12.48 531.76 12.45Q531.74 12.41 531.73 12.40L531.73 12.40L525.62 4.56L525.69 11.22Q525.69 11.67 525.85 11.77L525.85 11.77Q526.01 11.87 526.72 11.87L526.72 11.87L526.96 11.87L526.96 12.41L524.02 12.41L524.02 11.87L524.45 11.87Q524.82 11.87 524.93 11.76L524.93 11.76Q525.03 11.66 525.03 11.25L525.03 11.25L525.03 3.80L524.89 3.64L523.80 3.64ZM541.56 8.24L541.56 8.24Q541.56 6.92 542.18 5.72Q542.79 4.52 544.02 3.72L544.02 3.72Q545.26 2.92 546.88 2.92L546.88 2.92Q548.15 2.92 549.74 3.57L549.74 3.57L549.74 2.86L550.30 2.86L550.40 5.92L549.85 5.93L549.75 4.48Q549.67 4.41 549.40 4.24L549.40 4.24Q549.14 4.07 548.39 3.83L548.39 3.83Q547.67 3.60 546.77 3.60L546.77 3.60Q545.79 3.60 545.02 3.93Q544.25 4.27 543.79 4.83L543.79 4.83Q543.32 5.39 543.07 6.08L543.07 6.08Q542.82 6.78 542.82 7.57L542.82 7.57Q542.82 9.33 543.94 10.69Q545.06 12.05 546.92 12.05L546.92 12.05Q547.62 12.05 548.25 11.85Q548.88 11.66 549.10 11.48L549.10 11.48L549.34 11.28L549.34 8.78L547.68 8.78L547.67 8.23L551.53 8.23L551.54 8.78L550.48 8.78L550.48 11.64L549.69 11.98Q548.99 12.30 548.77 12.39L548.77 12.39Q548.52 12.48 547.87 12.61L547.87 12.61Q547.26 12.74 546.66 12.74L546.66 12.74Q545.36 12.74 544.39 12.37L544.39 12.37Q543.40 12.00 542.78 11.36L542.78 11.36Q542.19 10.76 541.87 9.94L541.87 9.94Q541.56 9.15 541.56 8.24ZM559.77 11.84L559.77 11.84Q559.77 11.68 560.05 11.45Q560.33 11.21 560.44 11.21L560.44 11.21Q560.64 11.21 560.88 11.49L560.88 11.49Q561.11 11.76 561.11 11.91L561.11 11.91Q561.11 12.09 560.84 12.32L560.84 12.32Q560.56 12.56 560.40 12.55L560.40 12.55Q560.28 12.55 560.03 12.29Q559.77 12.02 559.77 11.84ZM579.56 3.64L578.97 3.64L578.98 3.08L582.50 3.08L582.50 3.64L582.26 3.64Q581.72 3.64 581.55 3.73L581.55 3.73Q581.41 3.81 581.41 4.28L581.41 4.28L581.41 11.22Q581.41 11.68 581.52 11.77Q581.63 11.87 582.16 11.87L582.16 11.87L582.71 11.87L582.72 12.41L579.14 12.41L579.13 11.87L579.49 11.87Q580.05 11.87 580.16 11.77Q580.28 11.67 580.28 11.25L580.28 11.25L580.28 4.14Q580.28 3.77 580.17 3.71L580.17 3.71Q580.06 3.64 579.56 3.64L579.56 3.64ZM590.47 3.64L590.46 3.08L597.65 3.08Q597.66 4.14 597.71 5.28L597.71 5.28L597.17 5.30Q597.15 4.66 597.10 4.25L597.10 4.25Q597.06 3.89 597.00 3.80L597.00 3.80Q596.95 3.71 596.83 3.69L596.83 3.69Q596.74 3.68 596.15 3.68L596.15 3.68L593.77 3.68Q593.22 3.68 593.08 3.77L593.08 3.77Q592.96 3.86 592.96 4.33L592.96 4.33L592.96 6.28Q592.96 6.69 593.01 6.76L593.01 6.76Q593.08 6.84 593.41 6.84L593.41 6.84L595.53 6.84Q595.90 6.84 595.98 6.74Q596.06 6.64 596.06 6.17L596.06 6.17L596.06 5.63L596.58 5.63L596.58 8.97L596.06 8.97L596.06 8.26Q596.06 7.68 595.98 7.57Q595.90 7.46 595.56 7.46L595.56 7.46L593.46 7.46Q593.13 7.46 593.04 7.54Q592.96 7.63 592.96 7.89L592.96 7.89L592.96 11.20Q592.96 11.60 593.02 11.73L593.02 11.73Q593.11 11.87 593.37 11.87L593.37 11.87L594.31 11.87L594.31 12.41L590.71 12.41L590.71 11.87L591.12 11.87Q591.63 11.87 591.73 11.79Q591.82 11.70 591.82 11.33L591.82 11.33L591.82 4.24Q591.82 3.79 591.65 3.71L591.65 3.71Q591.51 3.64 590.47 3.64L590.47 3.64ZM615.47 3.64L615.47 3.64L615.49 3.08L618.63 3.08L618.63 3.64L618.34 3.64Q617.89 3.64 617.78 3.66L617.78 3.66Q617.61 3.71 617.61 3.82L617.61 3.82Q617.61 3.89 617.87 4.31L617.87 4.31L619.87 7.46L622.32 3.99Q622.40 3.83 622.41 3.82L622.41 3.82Q622.41 3.64 621.49 3.64L621.49 3.64L621.27 3.64L621.26 3.08L623.80 3.08L623.80 3.64L623.73 3.64Q623.38 3.64 623.24 3.72L623.24 3.72Q623.08 3.80 622.79 4.22L622.79 4.22L620.07 8.17L620.07 11.22Q620.07 11.66 620.18 11.77L620.18 11.77Q620.27 11.87 620.89 11.87L620.89 11.87L621.52 11.87L621.50 12.41L617.57 12.41L617.59 11.87L618.15 11.87Q618.68 11.87 618.81 11.79Q618.93 11.70 618.93 11.25L618.93 11.25L618.93 8.06L616.64 4.49Q616.22 3.84 616.09 3.73L616.09 3.73Q615.98 3.64 615.47 3.64ZM631.92 7.83L631.92 7.83Q631.92 6.62 632.32 5.68L632.32 5.68Q632.74 4.72 633.43 4.12L633.43 4.12Q634.12 3.51 634.98 3.19L634.98 3.19Q635.82 2.88 636.77 2.88L636.77 2.88Q638.03 2.88 639.08 3.40L639.08 3.40Q640.17 3.93 640.88 5.07L640.88 5.07Q641.57 6.17 641.58 7.75L641.58 7.75Q641.58 8.70 641.27 9.54Q640.96 10.38 640.36 11.10Q639.75 11.81 638.82 12.22L638.82 12.22Q637.85 12.63 636.67 12.64L636.67 12.64Q635.53 12.64 634.59 12.23Q633.66 11.83 633.10 11.14L633.10 11.14Q632.52 10.45 632.23 9.60L632.23 9.60Q631.92 8.72 631.92 7.83ZM633.18 7.38L633.18 7.38Q633.18 8.52 633.61 9.60L633.61 9.60Q634.01 10.64 634.94 11.33L634.94 11.33Q635.85 12.03 637.04 12.04L637.04 12.04Q638.42 12.04 639.35 11.01L639.35 11.01Q640.30 9.97 640.30 8.10L640.30 8.10Q640.30 5.99 639.14 4.72L639.14 4.72Q637.99 3.46 636.48 3.45L636.48 3.45Q635.96 3.45 635.42 3.65Q634.87 3.85 634.37 4.25L634.37 4.25Q633.82 4.68 633.50 5.48L633.50 5.48Q633.18 6.27 633.18 7.38ZM650.08 3.64L649.69 3.64L649.69 3.08L653.06 3.08L653.07 3.64L652.54 3.64Q652.11 3.64 651.95 3.73L651.95 3.73Q651.78 3.83 651.78 4.16L651.78 4.16L651.78 9.33Q651.78 9.63 651.81 9.78L651.81 9.78Q651.85 10.01 652.02 10.41L652.02 10.41Q652.19 10.80 652.48 11.09L652.48 11.09Q652.79 11.40 653.35 11.63L653.35 11.63Q653.93 11.85 654.71 11.85L654.71 11.85Q655.56 11.85 656.11 11.67L656.11 11.67Q656.67 11.48 656.97 11.22Q657.28 10.96 657.43 10.49L657.43 10.49Q657.60 9.95 657.60 9.66L657.60 9.66Q657.63 9.18 657.64 8.67L657.64 8.67L657.64 4.14Q657.64 3.81 657.49 3.72L657.49 3.72Q657.34 3.64 656.87 3.64L656.87 3.64L656.37 3.64L656.40 3.08L659.03 3.08L659.03 3.64L658.84 3.64Q658.52 3.64 658.41 3.75Q658.29 3.86 658.29 4.25L658.29 4.25L658.29 9.22Q658.29 12.67 654.71 12.67L654.71 12.67Q652.54 12.67 651.59 11.76L651.59 11.76Q650.65 10.86 650.65 9.41L650.65 9.41L650.65 4.14Q650.65 3.81 650.55 3.72L650.55 3.72Q650.44 3.64 650.08 3.64L650.08 3.64ZM676.72 3.64L676.48 3.64L676.48 3.08L679.59 3.08L679.57 3.64L679.27 3.64Q678.44 3.64 678.44 3.94L678.44 3.94Q678.44 4.03 678.47 4.09L678.47 4.09L680.89 10.76L683.20 4.85L683.10 4.57Q683.07 4.52 683.05 4.44Q683.03 4.36 683.01 4.31Q682.99 4.25 682.98 4.22L682.98 4.22Q682.95 4.16 682.86 3.96L682.86 3.96Q682.77 3.80 682.66 3.71L682.66 3.71Q682.58 3.64 682.40 3.64L682.40 3.64L681.72 3.64L681.72 3.08L685.05 3.08L685.05 3.64L684.31 3.64Q684.08 3.64 684.02 3.68L684.02 3.68Q683.95 3.72 683.95 3.86Q683.94 4.00 684.20 4.76L684.20 4.76L686.24 10.72L688.73 4.18Q688.79 4.01 688.79 3.94L688.79 3.94Q688.79 3.75 688.62 3.69L688.62 3.69Q688.46 3.64 688.11 3.64L688.11 3.64L687.74 3.64L687.74 3.08L690.14 3.08L690.15 3.64L689.98 3.64Q689.63 3.64 689.53 3.77L689.53 3.77Q689.41 3.96 689.17 4.60L689.17 4.60L686.08 12.64L685.84 12.64L683.46 5.64L680.74 12.63L680.52 12.63L677.54 4.52Q677.33 3.96 677.17 3.79L677.17 3.79Q677.01 3.63 676.72 3.64L676.72 3.64ZM697.89 12.41L697.88 11.87L698.05 11.87Q698.44 11.87 698.57 11.73L698.57 11.73Q698.69 11.57 699.03 10.83L699.03 10.83L699.94 8.82L700.51 7.53Q700.78 6.97 700.82 6.86L700.82 6.86Q700.89 6.70 700.94 6.60Q700.99 6.51 701.00 6.45L701.00 6.45L701.10 6.21L702.53 2.74L702.82 2.74Q703.68 4.98 705.87 10.25L705.87 10.25Q706.32 11.34 706.51 11.64L706.51 11.64Q706.64 11.87 707.08 11.87L707.08 11.87L707.29 11.87L707.28 12.41L704.09 12.41L704.10 11.87L704.52 11.87Q705.13 11.87 705.13 11.70L705.13 11.70Q705.13 11.63 705.00 11.27L705.00 11.27L703.96 8.72L700.71 8.72L699.60 11.18Q699.47 11.50 699.47 11.63L699.47 11.63Q699.47 11.79 699.56 11.83Q699.66 11.87 700.04 11.87L700.04 11.87L700.62 11.87L700.62 12.41L697.89 12.41ZM702.39 4.79L700.98 8.10L703.72 8.10L702.39 4.79ZM715.04 3.64L715.03 3.08L717.20 3.08L722.93 10.48L722.93 4.14Q722.93 3.81 722.78 3.72Q722.63 3.64 722.17 3.64L722.17 3.64L721.68 3.64L721.70 3.08L724.68 3.08L724.68 3.64L724.36 3.64Q723.90 3.64 723.75 3.75Q723.60 3.86 723.60 4.25L723.60 4.25L723.60 12.32L723.60 12.47Q723.60 12.52 723.58 12.57Q723.57 12.61 723.54 12.64L723.54 12.64Q723.52 12.65 723.47 12.65L723.47 12.65L723.28 12.65L723.21 12.65L723.19 12.65L723.16 12.64Q723.13 12.64 723.12 12.63Q723.11 12.61 723.11 12.60Q723.11 12.58 723.09 12.57L723.09 12.57Q723.06 12.54 723.04 12.50L723.04 12.50Q723.02 12.48 723.00 12.45Q722.98 12.41 722.97 12.40L722.97 12.40L716.86 4.56L716.93 11.22Q716.93 11.67 717.10 11.77L717.10 11.77Q717.25 11.87 717.96 11.87L717.96 11.87L718.20 11.87L718.20 12.41L715.26 12.41L715.26 11.87L715.69 11.87Q716.06 11.87 716.17 11.76L716.17 11.76Q716.27 11.66 716.28 11.25L716.28 11.25L716.28 3.80L716.13 3.64L715.04 3.64ZM732.70 5.35L732.20 5.33Q732.33 4.17 732.41 3.08L732.41 3.08L740.49 3.08Q740.41 4.13 740.38 4.53L740.38 4.53Q740.34 5.26 740.32 5.32L740.32 5.32L739.82 5.30Q739.90 4.34 739.90 4.16L739.90 4.16Q739.90 3.88 739.76 3.79L739.76 3.79Q739.59 3.69 739.18 3.69L739.18 3.69L737.58 3.69Q737.07 3.69 736.95 3.79L736.95 3.79Q736.85 3.87 736.85 4.36L736.85 4.36L736.85 11.22Q736.85 11.66 736.99 11.76L736.99 11.76Q737.15 11.87 737.66 11.87L737.66 11.87L738.22 11.87L738.23 12.41L734.54 12.40L734.54 11.87L734.76 11.87Q735.43 11.87 735.57 11.79Q735.72 11.70 735.72 11.28L735.72 11.28L735.72 4.48Q735.72 3.92 735.62 3.80Q735.52 3.69 735.10 3.69L735.10 3.69L733.63 3.69Q733.44 3.69 733.37 3.71Q733.30 3.72 733.20 3.72L733.20 3.72Q733.17 3.72 733.05 3.79L733.05 3.79Q732.97 3.84 732.94 3.86Q732.92 3.88 732.87 3.99L732.87 3.99Q732.85 4.05 732.82 4.14L732.82 4.14Q732.79 4.21 732.77 4.36L732.77 4.36Q732.74 4.59 732.74 4.61L732.74 4.61Q732.74 4.80 732.73 4.95L732.73 4.95Q732.73 5.02 732.72 5.15Q732.72 5.29 732.70 5.35L732.70 5.35ZM758.08 5.35L757.58 5.33Q757.70 4.17 757.78 3.08L757.78 3.08L765.86 3.08Q765.78 4.13 765.75 4.53L765.75 4.53Q765.71 5.26 765.69 5.32L765.69 5.32L765.19 5.30Q765.28 4.34 765.28 4.16L765.28 4.16Q765.28 3.88 765.13 3.79L765.13 3.79Q764.96 3.69 764.56 3.69L764.56 3.69L762.95 3.69Q762.45 3.69 762.32 3.79L762.32 3.79Q762.23 3.87 762.22 4.36L762.22 4.36L762.22 11.22Q762.22 11.66 762.36 11.76L762.36 11.76Q762.52 11.87 763.03 11.87L763.03 11.87L763.59 11.87L763.61 12.41L759.92 12.40L759.92 11.87L760.14 11.87Q760.81 11.87 760.95 11.79Q761.09 11.70 761.09 11.28L761.09 11.28L761.09 4.48Q761.09 3.92 760.99 3.80Q760.89 3.69 760.47 3.69L760.47 3.69L759.00 3.69Q758.82 3.69 758.75 3.71Q758.68 3.72 758.57 3.72L758.57 3.72Q758.54 3.72 758.43 3.79L758.43 3.79Q758.34 3.84 758.32 3.86Q758.29 3.88 758.25 3.99L758.25 3.99Q758.22 4.05 758.19 4.14L758.19 4.14Q758.17 4.21 758.15 4.36L758.15 4.36Q758.12 4.59 758.12 4.61L758.12 4.61Q758.12 4.80 758.11 4.95L758.11 4.95Q758.11 5.02 758.10 5.15Q758.09 5.29 758.08 5.35L758.08 5.35ZM774.19 3.64L773.60 3.64L773.62 3.08L777.13 3.08L777.13 3.64L776.90 3.64Q776.35 3.64 776.18 3.73L776.18 3.73Q776.04 3.81 776.04 4.28L776.04 4.28L776.04 11.22Q776.04 11.68 776.15 11.77Q776.26 11.87 776.79 11.87L776.79 11.87L777.34 11.87L777.36 12.41L773.77 12.41L773.76 11.87L774.12 11.87Q774.68 11.87 774.80 11.77Q774.91 11.67 774.91 11.25L774.91 11.25L774.91 4.14Q774.91 3.77 774.81 3.71L774.81 3.71Q774.70 3.64 774.19 3.64L774.19 3.64ZM788.26 12.41L785.24 12.41L785.24 11.87L785.37 11.87Q785.96 11.87 786.08 11.77L786.08 11.77Q786.20 11.68 786.21 11.21L786.21 11.21L786.34 4.38Q786.34 4.35 786.35 4.28Q786.36 4.21 786.36 4.17L786.36 4.17L786.36 4.01Q786.36 3.76 786.28 3.71L786.28 3.71Q786.19 3.64 785.96 3.64L785.96 3.64L785.25 3.64L785.24 3.08L787.35 3.08L790.54 10.55L793.68 3.08L795.92 3.08L795.92 3.64L795.44 3.64Q794.99 3.64 794.87 3.71L794.87 3.71Q794.71 3.79 794.71 4.08L794.71 4.08L794.71 11.22Q794.71 11.68 794.82 11.77Q794.94 11.87 795.57 11.87L795.57 11.87L795.85 11.87L795.86 12.41L792.46 12.41L792.44 11.87L792.72 11.87Q793.34 11.87 793.45 11.77L793.45 11.77Q793.58 11.66 793.58 11.25L793.58 11.25L793.58 4.83L791.42 9.91L790.57 12.02Q790.43 12.37 790.39 12.44Q790.34 12.51 790.28 12.51L790.28 12.51Q790.18 12.51 789.73 11.52L789.73 11.52L786.92 5.01L786.86 11.39Q786.86 11.74 787.06 11.80L787.06 11.80Q787.29 11.87 788.26 11.87L788.26 11.87L788.26 12.41ZM803.60 3.64L803.58 3.08L810.80 3.08Q810.81 4.14 810.87 5.28L810.87 5.28L810.32 5.30Q810.30 4.66 810.25 4.25L810.25 4.25Q810.21 3.89 810.15 3.80L810.15 3.80Q810.10 3.71 809.98 3.69L809.98 3.69Q809.89 3.68 809.30 3.68L809.30 3.68L806.92 3.68Q806.37 3.68 806.23 3.77L806.23 3.77Q806.11 3.86 806.11 4.33L806.11 4.33L806.11 6.28Q806.11 6.69 806.16 6.76L806.16 6.76Q806.23 6.84 806.57 6.84L806.57 6.84L808.68 6.84Q809.05 6.84 809.13 6.73L809.13 6.73Q809.21 6.63 809.22 6.14L809.22 6.14L809.22 5.61L809.73 5.63L809.73 8.97L809.22 8.97L809.22 8.24Q809.22 7.66 809.14 7.57L809.14 7.57Q809.06 7.46 808.71 7.46L808.71 7.46L806.61 7.46Q806.28 7.46 806.19 7.54Q806.11 7.63 806.11 7.89L806.11 7.89L806.11 11.20Q806.11 11.57 806.19 11.67Q806.28 11.77 806.55 11.77L806.55 11.77Q809.47 11.75 810.00 11.69L810.00 11.69Q810.52 11.63 810.60 11.38L810.60 11.38L810.61 11.36L810.61 11.35L810.84 10.17L811.32 10.25L810.97 12.41L803.87 12.41L803.87 11.87L804.23 11.87Q804.79 11.87 804.88 11.80L804.88 11.80Q804.97 11.72 804.97 11.33L804.97 11.33L804.97 4.24Q804.97 3.82 804.82 3.73L804.82 3.73Q804.65 3.64 804.00 3.64L804.00 3.64L803.60 3.64ZM828.91 3.64L828.91 3.64L828.92 3.08L832.06 3.08L832.06 3.64L831.78 3.64Q831.33 3.64 831.22 3.66L831.22 3.66Q831.04 3.71 831.04 3.82L831.04 3.82Q831.04 3.89 831.30 4.31L831.30 4.31L833.30 7.46L835.75 3.99Q835.83 3.83 835.84 3.82L835.84 3.82Q835.84 3.64 834.92 3.64L834.92 3.64L834.70 3.64L834.69 3.08L837.23 3.08L837.23 3.64L837.16 3.64Q836.81 3.64 836.67 3.72L836.67 3.72Q836.51 3.80 836.23 4.22L836.23 4.22L833.50 8.17L833.50 11.22Q833.50 11.66 833.61 11.77L833.61 11.77Q833.70 11.87 834.32 11.87L834.32 11.87L834.96 11.87L834.93 12.41L831.00 12.41L831.02 11.87L831.58 11.87Q832.11 11.87 832.24 11.79Q832.36 11.70 832.36 11.25L832.36 11.25L832.36 8.06L830.07 4.49Q829.65 3.84 829.52 3.73L829.52 3.73Q829.41 3.64 828.91 3.64ZM845.35 7.83L845.35 7.83Q845.35 6.62 845.76 5.68L845.76 5.68Q846.17 4.72 846.86 4.12L846.86 4.12Q847.55 3.51 848.42 3.19L848.42 3.19Q849.26 2.88 850.21 2.88L850.21 2.88Q851.46 2.88 852.52 3.40L852.52 3.40Q853.60 3.93 854.31 5.07L854.31 5.07Q855.00 6.17 855.01 7.75L855.01 7.75Q855.01 8.70 854.70 9.54Q854.40 10.38 853.79 11.10Q853.19 11.81 852.25 12.22L852.25 12.22Q851.29 12.63 850.10 12.64L850.10 12.64Q848.96 12.64 848.03 12.23Q847.09 11.83 846.53 11.14L846.53 11.14Q845.95 10.45 845.66 9.60L845.66 9.60Q845.35 8.72 845.35 7.83ZM846.61 7.38L846.61 7.38Q846.61 8.52 847.04 9.60L847.04 9.60Q847.44 10.64 848.37 11.33L848.37 11.33Q849.28 12.03 850.47 12.04L850.47 12.04Q851.85 12.04 852.78 11.01L852.78 11.01Q853.73 9.97 853.73 8.10L853.73 8.10Q853.73 5.99 852.57 4.72L852.57 4.72Q851.42 3.46 849.91 3.45L849.91 3.45Q849.39 3.45 848.85 3.65Q848.31 3.85 847.80 4.25L847.80 4.25Q847.25 4.68 846.93 5.48L846.93 5.48Q846.61 6.27 846.61 7.38ZM863.51 3.64L863.13 3.64L863.13 3.08L866.49 3.08L866.50 3.64L865.97 3.64Q865.54 3.64 865.38 3.73L865.38 3.73Q865.21 3.83 865.21 4.16L865.21 4.16L865.21 9.33Q865.21 9.63 865.25 9.78L865.25 9.78Q865.29 10.01 865.45 10.41L865.45 10.41Q865.62 10.80 865.92 11.09L865.92 11.09Q866.22 11.40 866.78 11.63L866.78 11.63Q867.36 11.85 868.14 11.85L868.14 11.85Q868.99 11.85 869.54 11.67L869.54 11.67Q870.10 11.48 870.41 11.22Q870.71 10.96 870.86 10.49L870.86 10.49Q871.03 9.95 871.04 9.66L871.04 9.66Q871.06 9.18 871.07 8.67L871.07 8.67L871.07 4.14Q871.07 3.81 870.93 3.72L870.93 3.72Q870.78 3.64 870.30 3.64L870.30 3.64L869.80 3.64L869.83 3.08L872.46 3.08L872.46 3.64L872.27 3.64Q871.95 3.64 871.84 3.75Q871.73 3.86 871.73 4.25L871.73 4.25L871.73 9.22Q871.73 12.67 868.14 12.67L868.14 12.67Q865.97 12.67 865.02 11.76L865.02 11.76Q864.08 10.86 864.08 9.41L864.08 9.41L864.08 4.14Q864.08 3.81 863.98 3.72L863.98 3.72Q863.87 3.64 863.51 3.64L863.51 3.64ZM892.94 12.41L889.92 12.41L889.92 11.87L890.05 11.87Q890.64 11.87 890.76 11.77L890.76 11.77Q890.88 11.68 890.89 11.21L890.89 11.21L891.02 4.38Q891.02 4.35 891.03 4.28Q891.04 4.21 891.04 4.17L891.04 4.17L891.04 4.01Q891.04 3.76 890.96 3.71L890.96 3.71Q890.87 3.64 890.64 3.64L890.64 3.64L889.93 3.64L889.92 3.08L892.03 3.08L895.22 10.55L898.36 3.08L900.59 3.08L900.59 3.64L900.12 3.64Q899.67 3.64 899.55 3.71L899.55 3.71Q899.39 3.79 899.39 4.08L899.39 4.08L899.39 11.22Q899.39 11.68 899.50 11.77Q899.62 11.87 900.25 11.87L900.25 11.87L900.53 11.87L900.54 12.41L897.14 12.41L897.12 11.87L897.40 11.87Q898.02 11.87 898.13 11.77L898.13 11.77Q898.26 11.66 898.26 11.25L898.26 11.25L898.26 4.83L896.10 9.91L895.25 12.02Q895.11 12.37 895.07 12.44Q895.02 12.51 894.95 12.51L894.95 12.51Q894.86 12.51 894.41 11.52L894.41 11.52L891.60 5.01L891.54 11.39Q891.54 11.74 891.73 11.80L891.73 11.80Q891.97 11.87 892.94 11.87L892.94 11.87L892.94 12.41ZM908.65 3.64L908.26 3.64L908.26 3.08L911.63 3.08L911.64 3.64L911.11 3.64Q910.68 3.64 910.52 3.73L910.52 3.73Q910.35 3.83 910.35 4.16L910.35 4.16L910.35 9.33Q910.35 9.63 910.38 9.78L910.38 9.78Q910.42 10.01 910.59 10.41L910.59 10.41Q910.76 10.80 911.05 11.09L911.05 11.09Q911.36 11.40 911.92 11.63L911.92 11.63Q912.50 11.85 913.27 11.85L913.27 11.85Q914.13 11.85 914.68 11.67L914.68 11.67Q915.24 11.48 915.54 11.22Q915.85 10.96 916.00 10.49L916.00 10.49Q916.17 9.95 916.17 9.66L916.17 9.66Q916.20 9.18 916.21 8.67L916.21 8.67L916.21 4.14Q916.21 3.81 916.06 3.72L916.06 3.72Q915.91 3.64 915.43 3.64L915.43 3.64L914.94 3.64L914.97 3.08L917.60 3.08L917.60 3.64L917.41 3.64Q917.09 3.64 916.98 3.75Q916.86 3.86 916.86 4.25L916.86 4.25L916.86 9.22Q916.86 12.67 913.27 12.67L913.27 12.67Q911.11 12.67 910.16 11.76L910.16 11.76Q909.22 10.86 909.22 9.41L909.22 9.41L909.22 4.14Q909.22 3.81 909.12 3.72L909.12 3.72Q909.01 3.64 908.65 3.64L908.65 3.64ZM925.31 10.04L925.31 10.04L925.80 9.98L925.99 10.85Q926.10 11.33 926.17 11.41Q926.24 11.49 926.65 11.64L926.65 11.64Q927.49 11.95 928.38 11.95L928.38 11.95Q929.17 11.95 929.71 11.49L929.71 11.49Q930.24 11.04 930.24 10.26L930.24 10.26Q930.24 9.65 929.78 9.21L929.78 9.21Q929.30 8.76 928.45 8.30L928.45 8.30L927.88 7.98Q927.13 7.55 926.90 7.36L926.90 7.36Q926.54 7.08 926.23 6.59Q925.91 6.10 925.91 5.46L925.91 5.46Q925.91 4.39 926.75 3.68Q927.60 2.97 928.70 2.97L928.70 2.97Q928.98 2.97 929.33 3.04L929.33 3.04Q929.53 3.08 929.87 3.17L929.87 3.17L930.10 3.25Q930.20 3.25 930.24 3.16L930.24 3.16Q930.30 3.05 930.30 2.98L930.30 2.98L930.31 2.88L930.79 2.85L931 5.41L930.49 5.43L930.37 4.18Q929.63 3.62 928.46 3.62L928.46 3.62Q927.82 3.62 927.32 4.05L927.32 4.05Q926.84 4.47 926.84 5.12L926.84 5.12Q926.84 5.72 927.29 6.17L927.29 6.17Q927.72 6.60 928.59 7.08L928.59 7.08L929.36 7.50Q930.31 8.03 930.84 8.59Q931.38 9.15 931.38 9.92L931.38 9.92Q931.38 10.99 930.52 11.76L930.52 11.76Q929.65 12.54 928.20 12.54L928.20 12.54Q927.64 12.54 927.13 12.41Q926.63 12.29 926.58 12.29L926.58 12.29Q926.32 12.29 926.32 12.58L926.32 12.58L926.34 12.76L925.86 12.80Q925.80 12.41 925.31 10.04ZM939.84 5.35L939.34 5.33Q939.46 4.17 939.54 3.08L939.54 3.08L947.63 3.08Q947.54 4.13 947.52 4.53L947.52 4.53Q947.47 5.26 947.45 5.32L947.45 5.32L946.96 5.30Q947.04 4.34 947.04 4.16L947.04 4.16Q947.04 3.88 946.89 3.79L946.89 3.79Q946.72 3.69 946.32 3.69L946.32 3.69L944.71 3.69Q944.21 3.69 944.08 3.79L944.08 3.79Q943.99 3.87 943.98 4.36L943.98 4.36L943.98 11.22Q943.98 11.66 944.13 11.76L944.13 11.76Q944.28 11.87 944.79 11.87L944.79 11.87L945.36 11.87L945.37 12.41L941.68 12.40L941.68 11.87L941.90 11.87Q942.57 11.87 942.71 11.79Q942.85 11.70 942.85 11.28L942.85 11.28L942.85 4.48Q942.85 3.92 942.75 3.80Q942.66 3.69 942.23 3.69L942.23 3.69L940.76 3.69Q940.58 3.69 940.51 3.71Q940.44 3.72 940.33 3.72L940.33 3.72Q940.30 3.72 940.19 3.79L940.19 3.79Q940.11 3.84 940.08 3.86Q940.05 3.88 940.01 3.99L940.01 3.99Q939.98 4.05 939.96 4.14L939.96 4.14Q939.93 4.21 939.91 4.36L939.91 4.36Q939.88 4.59 939.88 4.61L939.88 4.61Q939.88 4.80 939.87 4.95L939.87 4.95Q939.87 5.02 939.86 5.15Q939.85 5.29 939.84 5.35L939.84 5.35ZM968.10 12.41L965.08 12.41L965.08 11.87L965.21 11.87Q965.80 11.87 965.92 11.77L965.92 11.77Q966.04 11.68 966.05 11.21L966.05 11.21L966.18 4.38Q966.18 4.35 966.19 4.28Q966.20 4.21 966.20 4.17L966.20 4.17L966.20 4.01Q966.20 3.76 966.12 3.71L966.12 3.71Q966.03 3.64 965.80 3.64L965.80 3.64L965.09 3.64L965.08 3.08L967.19 3.08L970.38 10.55L973.52 3.08L975.75 3.08L975.75 3.64L975.28 3.64Q974.83 3.64 974.71 3.71L974.71 3.71Q974.55 3.79 974.55 4.08L974.55 4.08L974.55 11.22Q974.55 11.68 974.66 11.77Q974.78 11.87 975.41 11.87L975.41 11.87L975.69 11.87L975.70 12.41L972.30 12.41L972.28 11.87L972.56 11.87Q973.18 11.87 973.29 11.77L973.29 11.77Q973.42 11.66 973.42 11.25L973.42 11.25L973.42 4.83L971.26 9.91L970.41 12.02Q970.27 12.37 970.23 12.44Q970.18 12.51 970.12 12.51L970.12 12.51Q970.02 12.51 969.57 11.52L969.57 11.52L966.76 5.01L966.70 11.39Q966.70 11.74 966.90 11.80L966.90 11.80Q967.13 11.87 968.10 11.87L968.10 11.87L968.10 12.41ZM983.44 12.41L983.42 11.87L983.60 11.87Q983.99 11.87 984.12 11.73L984.12 11.73Q984.24 11.57 984.57 10.83L984.57 10.83L985.48 8.82L986.06 7.53Q986.32 6.97 986.36 6.86L986.36 6.86Q986.43 6.70 986.48 6.60Q986.54 6.51 986.55 6.45L986.55 6.45L986.64 6.21L988.07 2.74L988.37 2.74Q989.22 4.98 991.41 10.25L991.41 10.25Q991.86 11.34 992.05 11.64L992.05 11.64Q992.19 11.87 992.63 11.87L992.63 11.87L992.84 11.87L992.82 12.41L989.63 12.41L989.65 11.87L990.06 11.87Q990.68 11.87 990.68 11.70L990.68 11.70Q990.68 11.63 990.54 11.27L990.54 11.27L989.50 8.72L986.25 8.72L985.15 11.18Q985.01 11.50 985.01 11.63L985.01 11.63Q985.01 11.79 985.11 11.83Q985.20 11.87 985.58 11.87L985.58 11.87L986.16 11.87L986.16 12.41L983.44 12.41ZM987.94 4.79L986.52 8.10L989.26 8.10L987.94 4.79ZM1001.16 3.64L1000.57 3.64L1000.57 3.08L1004.07 3.08L1004.07 3.64L1003.63 3.64Q1003.22 3.64 1003.12 3.73L1003.12 3.73Q1003.01 3.84 1003.01 4.28L1003.01 4.28L1003.01 7.50L1007.10 4.18Q1007.45 3.89 1007.45 3.77L1007.45 3.77Q1007.45 3.64 1006.80 3.64L1006.80 3.64L1006.26 3.64L1006.23 3.08L1009.59 3.08L1009.59 3.64L1009.22 3.64Q1008.79 3.64 1008.58 3.76L1008.58 3.76Q1008.41 3.86 1007.53 4.55L1007.53 4.55L1004.36 7.08L1008.59 11.49Q1008.96 11.87 1009.20 11.87L1009.20 11.87L1010.01 11.87L1009.98 12.41L1007.78 12.41L1003.52 7.74L1003.01 8.16L1003.01 11.22Q1003.01 11.70 1003.18 11.79Q1003.34 11.87 1004.11 11.87L1004.11 11.87L1004.42 11.87L1004.42 12.41L1000.84 12.41L1000.82 11.87L1001.20 11.87Q1001.70 11.87 1001.79 11.79Q1001.88 11.70 1001.88 11.25L1001.88 11.25L1001.88 4.14Q1001.88 3.77 1001.77 3.71L1001.77 3.71Q1001.66 3.64 1001.16 3.64L1001.16 3.64ZM1017.75 3.64L1017.74 3.08L1024.95 3.08Q1024.97 4.14 1025.02 5.28L1025.02 5.28L1024.47 5.30Q1024.46 4.66 1024.41 4.25L1024.41 4.25Q1024.37 3.89 1024.31 3.80L1024.31 3.80Q1024.26 3.71 1024.14 3.69L1024.14 3.69Q1024.04 3.68 1023.46 3.68L1023.46 3.68L1021.08 3.68Q1020.53 3.68 1020.39 3.77L1020.39 3.77Q1020.26 3.86 1020.26 4.33L1020.26 4.33L1020.26 6.28Q1020.26 6.69 1020.32 6.76L1020.32 6.76Q1020.39 6.84 1020.73 6.84L1020.73 6.84L1022.84 6.84Q1023.20 6.84 1023.29 6.73L1023.29 6.73Q1023.37 6.63 1023.37 6.14L1023.37 6.14L1023.37 5.61L1023.89 5.63L1023.89 8.97L1023.37 8.97L1023.37 8.24Q1023.37 7.66 1023.30 7.57L1023.30 7.57Q1023.22 7.46 1022.87 7.46L1022.87 7.46L1020.77 7.46Q1020.43 7.46 1020.35 7.54Q1020.26 7.63 1020.26 7.89L1020.26 7.89L1020.26 11.20Q1020.26 11.57 1020.35 11.67Q1020.43 11.77 1020.71 11.77L1020.71 11.77Q1023.63 11.75 1024.15 11.69L1024.15 11.69Q1024.67 11.63 1024.75 11.38L1024.75 11.38L1024.76 11.36L1024.77 11.35L1024.99 10.17L1025.47 10.25L1025.12 12.41L1018.02 12.41L1018.02 11.87L1018.39 11.87Q1018.95 11.87 1019.03 11.80L1019.03 11.80Q1019.13 11.72 1019.13 11.33L1019.13 11.33L1019.13 4.24Q1019.13 3.82 1018.98 3.73L1018.98 3.73Q1018.81 3.64 1018.15 3.64L1018.15 3.64L1017.75 3.64ZM1043.51 3.64L1042.92 3.64L1042.93 3.08L1046.45 3.08L1046.45 3.64L1046.21 3.64Q1045.67 3.64 1045.50 3.73L1045.50 3.73Q1045.36 3.81 1045.36 4.28L1045.36 4.28L1045.36 11.22Q1045.36 11.68 1045.47 11.77Q1045.58 11.87 1046.11 11.87L1046.11 11.87L1046.66 11.87L1046.67 12.41L1043.09 12.41L1043.08 11.87L1043.44 11.87Q1044.00 11.87 1044.11 11.77Q1044.22 11.67 1044.22 11.25L1044.22 11.25L1044.22 4.14Q1044.22 3.77 1044.12 3.71L1044.12 3.71Q1044.01 3.64 1043.51 3.64L1043.51 3.64ZM1054.69 5.35L1054.19 5.33Q1054.31 4.17 1054.40 3.08L1054.40 3.08L1062.48 3.08Q1062.39 4.13 1062.37 4.53L1062.37 4.53Q1062.33 5.26 1062.30 5.32L1062.30 5.32L1061.81 5.30Q1061.89 4.34 1061.89 4.16L1061.89 4.16Q1061.89 3.88 1061.74 3.79L1061.74 3.79Q1061.57 3.69 1061.17 3.69L1061.17 3.69L1059.56 3.69Q1059.06 3.69 1058.93 3.79L1058.93 3.79Q1058.84 3.87 1058.83 4.36L1058.83 4.36L1058.83 11.22Q1058.83 11.66 1058.98 11.76L1058.98 11.76Q1059.13 11.87 1059.65 11.87L1059.65 11.87L1060.21 11.87L1060.22 12.41L1056.53 12.40L1056.53 11.87L1056.75 11.87Q1057.42 11.87 1057.56 11.79Q1057.70 11.70 1057.70 11.28L1057.70 11.28L1057.70 4.48Q1057.70 3.92 1057.60 3.80Q1057.51 3.69 1057.08 3.69L1057.08 3.69L1055.61 3.69Q1055.43 3.69 1055.36 3.71Q1055.29 3.72 1055.18 3.72L1055.18 3.72Q1055.15 3.72 1055.04 3.79L1055.04 3.79Q1054.96 3.84 1054.93 3.86Q1054.90 3.88 1054.86 3.99L1054.86 3.99Q1054.83 4.05 1054.81 4.14L1054.81 4.14Q1054.78 4.21 1054.76 4.36L1054.76 4.36Q1054.73 4.59 1054.73 4.61L1054.73 4.61Q1054.73 4.80 1054.72 4.95L1054.72 4.95Q1054.72 5.02 1054.71 5.15Q1054.70 5.29 1054.69 5.35L1054.69 5.35ZM1070.71 11.84L1070.71 11.84Q1070.71 11.68 1070.99 11.45Q1071.27 11.21 1071.38 11.21L1071.38 11.21Q1071.57 11.21 1071.81 11.49L1071.81 11.49Q1072.04 11.76 1072.04 11.91L1072.04 11.91Q1072.04 12.09 1071.77 12.32L1071.77 12.32Q1071.49 12.56 1071.33 12.55L1071.33 12.55Q1071.21 12.55 1070.96 12.29Q1070.71 12.02 1070.71 11.84ZM1081.49 11.94L1081.49 11.94Q1081.49 11.80 1081.73 11.57Q1081.97 11.35 1082.09 11.35L1082.09 11.35Q1082.27 11.35 1082.48 11.57L1082.48 11.57Q1082.69 11.81 1082.68 11.95L1082.68 11.95Q1082.68 12.11 1082.46 12.33Q1082.24 12.55 1082.08 12.55L1082.08 12.55Q1081.94 12.55 1081.72 12.33Q1081.49 12.11 1081.49 11.94ZM1081.51 3.73L1081.51 3.73Q1081.51 3.47 1081.86 3.37L1081.86 3.37Q1082.20 3.27 1082.43 3.27L1082.43 3.27Q1082.61 3.27 1082.61 3.42L1082.61 3.42Q1082.59 4.42 1082.43 6.17L1082.43 6.17Q1082.25 8.15 1082.24 8.86L1082.24 8.86L1082.24 9.24Q1082.24 9.30 1082.23 9.42Q1082.22 9.53 1082.22 9.56L1082.22 9.56L1082.22 9.81Q1082.22 9.93 1082.20 10.02L1082.20 10.02Q1082.20 10.04 1082.18 10.09Q1082.17 10.14 1082.16 10.16L1082.16 10.16Q1082.13 10.23 1082.08 10.26L1082.08 10.26Q1082.03 10.29 1081.99 10.29L1081.99 10.29Q1081.93 10.29 1081.89 10.25L1081.89 10.25Q1081.83 10.21 1081.81 10.13L1081.81 10.13Q1081.80 10.12 1081.80 10.08Q1081.80 10.04 1081.79 10.01L1081.79 10.01Q1081.76 9.93 1081.76 9.85L1081.76 9.85L1081.76 9.78Q1081.51 6.65 1081.51 3.73Z"></path></g></svg>